<svg width="981" height="752" viewBox="0 0 981 752" fill="none" xmlns="http://www.w3.org/2000/svg">
<path d="M202 238H200V345H202V238Z" fill="white"/>
<path d="M202 376.851H200V471H202V376.851Z" fill="white"/>
<path d="M352 486H197V488H352V486Z" fill="white"/>
<path d="M133 513H131V598H133V513Z" fill="white"/>
<path d="M384 613H149V615H384V613Z" fill="white"/>
<path d="M580 170H578V271H580V170Z" fill="white"/>
<path d="M563 287H415.966V289H563V287Z" fill="white"/>
<path d="M401 303H399V438H401V303Z" fill="white"/>
<path d="M216.5 361V360.999C216.496 356.89 214.861 352.95 211.956 350.045C209.05 347.139 205.11 345.505 201.001 345.5L201 346V345.5C197.935 345.5 194.938 346.409 192.389 348.112C189.84 349.815 187.853 352.236 186.68 355.068C185.507 357.901 185.2 361.017 185.798 364.024C186.396 367.031 187.872 369.792 190.04 371.96C192.208 374.128 194.97 375.604 197.976 376.202C200.983 376.8 204.1 376.493 206.932 375.32C209.764 374.147 212.185 372.16 213.888 369.611C215.591 367.062 216.5 364.066 216.5 361ZM214.72 351.833C216.532 354.546 217.5 357.736 217.5 360.999C217.495 365.374 215.755 369.568 212.662 372.662C209.569 375.755 205.374 377.495 201 377.5C197.737 377.5 194.547 376.532 191.833 374.719C189.12 372.906 187.005 370.329 185.756 367.314C184.507 364.299 184.181 360.982 184.817 357.781C185.454 354.58 187.025 351.64 189.333 349.333C191.641 347.025 194.581 345.454 197.781 344.817C200.982 344.18 204.3 344.507 207.315 345.756C210.33 347.005 212.906 349.12 214.72 351.833Z" fill="#3F3D56" stroke="white"/>
<path d="M148.5 614V613.999C148.496 609.89 146.861 605.95 143.956 603.045C141.05 600.139 137.11 598.505 133.001 598.5L133 599V598.5C129.935 598.5 126.938 599.409 124.389 601.112C121.84 602.815 119.853 605.236 118.68 608.068C117.507 610.901 117.2 614.017 117.798 617.024C118.396 620.031 119.872 622.792 122.04 624.96C124.208 627.128 126.97 628.604 129.976 629.202C132.983 629.8 136.1 629.493 138.932 628.32C141.764 627.147 144.185 625.16 145.888 622.611C147.591 620.062 148.5 617.066 148.5 614ZM146.72 604.833C148.532 607.546 149.5 610.736 149.5 613.999C149.495 618.374 147.755 622.568 144.662 625.662C141.569 628.755 137.374 630.495 133 630.5C129.737 630.5 126.547 629.532 123.833 627.719C121.12 625.906 119.005 623.329 117.756 620.314C116.507 617.299 116.181 613.982 116.817 610.781C117.454 607.58 119.025 604.64 121.333 602.333C123.641 600.025 126.581 598.454 129.781 597.817C132.982 597.18 136.3 597.507 139.315 598.756C142.33 600.005 144.906 602.12 146.72 604.833Z" fill="#3F3D56" stroke="white"/>
<path d="M217.5 487C217.5 495.56 210.56 502.5 202 502.5C193.44 502.5 186.5 495.56 186.5 487C186.5 478.44 193.44 471.5 202 471.5C210.56 471.5 217.5 478.44 217.5 487Z" fill="#117864" stroke="white"/>
<path d="M781 360H615V362H781V360Z" fill="white"/>
<path d="M600 376.851H598V471H600V376.851Z" fill="white"/>
<path d="M582 486H449V488H582V486Z" fill="white"/>
<path d="M821 495H683V497H821V495Z" fill="white"/>
<path d="M669 513H667V598H669V513Z" fill="white"/>
<path d="M651 613H416V615H651V613Z" fill="white"/>
<path d="M401 536H399V598H401V536Z" fill="white"/>
<path d="M614.5 361C614.5 369.56 607.56 376.5 599 376.5C590.44 376.5 583.5 369.56 583.5 361C583.5 352.44 590.44 345.5 599 345.5C607.56 345.5 614.5 352.44 614.5 361Z" fill="#117864" stroke="white"/>
<path d="M594.5 287V286.999C594.496 282.89 592.861 278.95 589.956 276.045C587.05 273.139 583.11 271.505 579.001 271.5L579 272V271.5C575.935 271.5 572.938 272.409 570.389 274.112C567.84 275.815 565.853 278.236 564.68 281.068C563.507 283.901 563.2 287.017 563.798 290.024C564.396 293.031 565.872 295.792 568.04 297.96C570.208 300.128 572.97 301.604 575.976 302.202C578.983 302.8 582.1 302.493 584.932 301.32C587.764 300.147 590.185 298.16 591.888 295.611C593.591 293.062 594.5 290.066 594.5 287ZM592.72 277.833C594.532 280.546 595.5 283.736 595.5 286.999C595.495 291.374 593.755 295.568 590.662 298.662C587.569 301.755 583.374 303.495 579 303.5C575.736 303.5 572.547 302.532 569.833 300.719C567.12 298.906 565.005 296.329 563.756 293.314C562.507 290.299 562.181 286.982 562.817 283.781C563.454 280.58 565.025 277.64 567.333 275.333C569.641 273.025 572.581 271.454 575.781 270.817C578.982 270.18 582.3 270.507 585.315 271.756C588.329 273.005 590.906 275.12 592.72 277.833Z" fill="#3F3D56" stroke="white"/>
<path d="M415.5 287V286.999C415.496 282.89 413.861 278.95 410.956 276.045C408.05 273.139 404.11 271.505 400.001 271.5L400 272V271.5C396.935 271.5 393.938 272.409 391.389 274.112C388.84 275.815 386.853 278.236 385.68 281.068C384.507 283.901 384.2 287.017 384.798 290.024C385.396 293.031 386.872 295.792 389.04 297.96C391.208 300.128 393.97 301.604 396.976 302.202C399.983 302.8 403.1 302.493 405.932 301.32C408.764 300.147 411.185 298.16 412.888 295.611C414.591 293.062 415.5 290.066 415.5 287ZM413.72 277.833C415.532 280.546 416.5 283.736 416.5 286.999C416.495 291.374 414.755 295.568 411.662 298.662C408.569 301.755 404.374 303.495 400 303.5C396.736 303.5 393.547 302.532 390.833 300.719C388.12 298.906 386.005 296.329 384.756 293.314C383.507 290.299 383.181 286.982 383.817 283.781C384.454 280.58 386.025 277.64 388.333 275.333C390.641 273.025 393.581 271.454 396.781 270.817C399.982 270.18 403.3 270.507 406.315 271.756C409.329 273.005 411.906 275.12 413.72 277.833Z" fill="#3F3D56" stroke="white"/>
<path d="M682.5 497V496.999C682.496 492.89 680.861 488.95 677.956 486.045C675.05 483.139 671.11 481.505 667.001 481.5L667 482V481.5C663.935 481.5 660.938 482.409 658.389 484.112C655.84 485.815 653.853 488.236 652.68 491.068C651.507 493.901 651.2 497.017 651.798 500.024C652.396 503.031 653.872 505.792 656.04 507.96C658.208 510.128 660.97 511.604 663.976 512.202C666.983 512.8 670.1 512.493 672.932 511.32C675.764 510.147 678.185 508.16 679.888 505.611C681.591 503.062 682.5 500.066 682.5 497ZM680.72 487.833C682.532 490.546 683.5 493.736 683.5 496.999C683.495 501.374 681.755 505.568 678.662 508.662C675.569 511.755 671.374 513.495 667 513.5C663.736 513.5 660.547 512.532 657.833 510.719C655.12 508.906 653.005 506.329 651.756 503.314C650.507 500.299 650.181 496.982 650.817 493.781C651.454 490.58 653.025 487.64 655.333 485.333C657.641 483.025 660.581 481.454 663.781 480.817C666.982 480.18 670.3 480.507 673.315 481.756C676.329 483.005 678.906 485.12 680.72 487.833Z" fill="#3F3D56" stroke="white"/>
<path d="M682 614C682 622.285 675.285 629 667 629C658.715 629 652 622.285 652 614C652 605.715 658.715 599 667 599C675.285 599 682 605.715 682 614Z" stroke="white" stroke-width="2"/>
<path d="M415.5 614V613.999C415.496 609.89 413.861 605.95 410.956 603.045C408.05 600.139 404.11 598.505 400.001 598.5L400 599V598.5C396.935 598.5 393.938 599.409 391.389 601.112C388.84 602.815 386.853 605.236 385.68 608.068C384.507 610.901 384.2 614.017 384.798 617.024C385.396 620.031 386.872 622.792 389.04 624.96C391.208 627.128 393.97 628.604 396.976 629.202C399.983 629.8 403.1 629.493 405.932 628.32C408.764 627.147 411.185 625.16 412.888 622.611C414.591 620.062 415.5 617.066 415.5 614ZM413.72 604.833C415.532 607.546 416.5 610.736 416.5 613.999C416.495 618.374 414.755 622.568 411.662 625.662C408.569 628.755 404.374 630.495 400 630.5C396.736 630.5 393.547 629.532 390.833 627.719C388.12 625.906 386.005 623.329 384.756 620.314C383.507 617.299 383.181 613.982 383.817 610.781C384.454 607.58 386.025 604.64 388.333 602.333C390.641 600.025 393.581 598.454 396.781 597.817C399.982 597.18 403.3 597.507 406.315 598.756C409.329 600.005 411.906 602.12 413.72 604.833Z" fill="#3F3D56" stroke="white"/>
<path d="M613.5 487V486.999C613.496 482.89 611.861 478.95 608.956 476.045C606.05 473.139 602.11 471.505 598.001 471.5L598 472V471.5C594.935 471.5 591.938 472.409 589.389 474.112C586.84 475.815 584.853 478.236 583.68 481.068C582.507 483.901 582.2 487.017 582.798 490.024C583.396 493.031 584.872 495.792 587.04 497.96C589.208 500.128 591.97 501.604 594.976 502.202C597.983 502.8 601.1 502.493 603.932 501.32C606.764 500.147 609.185 498.16 610.888 495.611C612.591 493.062 613.5 490.066 613.5 487ZM611.72 477.833C613.532 480.546 614.5 483.736 614.5 486.999C614.495 491.374 612.755 495.568 609.662 498.662C606.569 501.755 602.374 503.495 598 503.5C594.736 503.5 591.547 502.532 588.833 500.719C586.12 498.906 584.005 496.329 582.756 493.314C581.507 490.299 581.181 486.982 581.817 483.781C582.454 480.58 584.025 477.64 586.333 475.333C588.641 473.025 591.581 471.454 594.781 470.817C597.982 470.18 601.3 470.507 604.315 471.756C607.329 473.005 609.906 475.12 611.72 477.833Z" fill="#3F3D56" stroke="white"/>
<path d="M133 463C129.044 463 125.178 464.173 121.889 466.371C118.6 468.568 116.036 471.692 114.522 475.346C113.009 479.001 112.613 483.022 113.384 486.902C114.156 490.781 116.061 494.345 118.858 497.142C121.655 499.939 125.219 501.844 129.098 502.616C132.978 503.387 136.999 502.991 140.654 501.478C144.308 499.964 147.432 497.4 149.629 494.111C151.827 490.822 153 486.956 153 483C152.984 477.7 150.872 472.622 147.125 468.875C143.378 465.128 138.3 463.016 133 463ZM133 469C134.187 469 135.347 469.352 136.333 470.011C137.32 470.67 138.089 471.608 138.543 472.704C138.997 473.8 139.116 475.007 138.885 476.171C138.653 477.334 138.082 478.404 137.243 479.243C136.404 480.082 135.334 480.653 134.171 480.885C133.007 481.116 131.8 480.997 130.704 480.543C129.608 480.089 128.67 479.32 128.011 478.333C127.352 477.347 127 476.187 127 475C127.005 473.41 127.639 471.887 128.763 470.763C129.887 469.639 131.41 469.005 133 469ZM133 497.885C130.63 497.874 128.298 497.285 126.207 496.169C124.116 495.053 122.328 493.444 121 491.481C121.096 487.481 129 485.279 133 485.279C137 485.279 144.904 487.481 145 491.481C143.67 493.442 141.882 495.05 139.792 496.166C137.701 497.282 135.37 497.872 133 497.885Z" fill="white"/>
<path d="M202 190C198.044 190 194.178 191.173 190.889 193.371C187.6 195.568 185.036 198.692 183.522 202.346C182.009 206.001 181.613 210.022 182.384 213.902C183.156 217.781 185.061 221.345 187.858 224.142C190.655 226.939 194.219 228.844 198.098 229.616C201.978 230.387 205.999 229.991 209.654 228.478C213.308 226.964 216.432 224.4 218.629 221.111C220.827 217.822 222 213.956 222 210C221.984 204.7 219.872 199.622 216.125 195.875C212.378 192.128 207.3 190.016 202 190ZM202 196C203.187 196 204.347 196.352 205.333 197.011C206.32 197.67 207.089 198.608 207.543 199.704C207.997 200.8 208.116 202.007 207.885 203.171C207.653 204.334 207.082 205.404 206.243 206.243C205.404 207.082 204.334 207.653 203.171 207.885C202.007 208.116 200.8 207.997 199.704 207.543C198.608 207.089 197.67 206.32 197.011 205.333C196.352 204.347 196 203.187 196 202C196.005 200.41 196.639 198.887 197.763 197.763C198.887 196.639 200.41 196.005 202 196ZM202 224.885C199.63 224.874 197.298 224.285 195.207 223.169C193.116 222.053 191.328 220.444 190 218.481C190.096 214.481 198 212.279 202 212.279C206 212.279 213.904 214.481 214 218.481C212.67 220.442 210.882 222.05 208.792 223.166C206.701 224.282 204.37 224.872 202 224.885Z" fill="white"/>
<path d="M579 121C575.044 121 571.178 122.173 567.889 124.371C564.6 126.568 562.036 129.692 560.522 133.346C559.009 137.001 558.613 141.022 559.384 144.902C560.156 148.781 562.061 152.345 564.858 155.142C567.655 157.939 571.219 159.844 575.098 160.616C578.978 161.387 582.999 160.991 586.654 159.478C590.308 157.964 593.432 155.4 595.629 152.111C597.827 148.822 599 144.956 599 141C598.985 135.7 596.872 130.622 593.125 126.875C589.378 123.128 584.3 121.016 579 121ZM579 127C580.187 127 581.347 127.352 582.333 128.011C583.32 128.67 584.089 129.608 584.543 130.704C584.997 131.8 585.116 133.007 584.885 134.171C584.653 135.334 584.082 136.404 583.243 137.243C582.404 138.082 581.334 138.653 580.171 138.885C579.007 139.116 577.8 138.997 576.704 138.543C575.608 138.089 574.67 137.32 574.011 136.333C573.352 135.347 573 134.187 573 133C573.005 131.41 573.639 129.887 574.763 128.763C575.887 127.639 577.41 127.005 579 127ZM579 155.885C576.63 155.874 574.298 155.285 572.207 154.169C570.116 153.053 568.328 151.444 567 149.481C567.096 145.481 575 143.279 579 143.279C583 143.279 590.904 145.481 591 149.481C589.67 151.442 587.882 153.05 585.792 154.166C583.701 155.282 581.37 155.872 579 155.885Z" fill="white"/>
<path d="M809 340C805.044 340 801.178 341.173 797.889 343.371C794.6 345.568 792.036 348.692 790.522 352.346C789.009 356.001 788.613 360.022 789.384 363.902C790.156 367.781 792.061 371.345 794.858 374.142C797.655 376.939 801.219 378.844 805.098 379.616C808.978 380.387 812.999 379.991 816.654 378.478C820.308 376.964 823.432 374.4 825.629 371.111C827.827 367.822 829 363.956 829 360C828.985 354.7 826.872 349.622 823.125 345.875C819.378 342.128 814.3 340.016 809 340ZM809 346C810.187 346 811.347 346.352 812.333 347.011C813.32 347.67 814.089 348.608 814.543 349.704C814.997 350.8 815.116 352.007 814.885 353.171C814.653 354.334 814.082 355.404 813.243 356.243C812.403 357.082 811.334 357.653 810.171 357.885C809.007 358.116 807.8 357.997 806.704 357.543C805.608 357.089 804.67 356.32 804.011 355.333C803.352 354.347 803 353.187 803 352C803.005 350.41 803.639 348.887 804.763 347.763C805.887 346.639 807.41 346.005 809 346ZM809 374.885C806.63 374.874 804.298 374.285 802.207 373.169C800.116 372.053 798.328 370.444 797 368.481C797.096 364.481 805 362.279 809 362.279C813 362.279 820.904 364.481 821 368.481C819.67 370.442 817.882 372.05 815.792 373.166C813.701 374.282 811.37 374.872 809 374.885Z" fill="white"/>
<path d="M847 475C843.044 475 839.178 476.173 835.889 478.371C832.6 480.568 830.036 483.692 828.522 487.346C827.009 491.001 826.613 495.022 827.384 498.902C828.156 502.781 830.061 506.345 832.858 509.142C835.655 511.939 839.219 513.844 843.098 514.616C846.978 515.387 850.999 514.991 854.654 513.478C858.308 511.964 861.432 509.4 863.629 506.111C865.827 502.822 867 498.956 867 495C866.985 489.7 864.872 484.622 861.125 480.875C857.378 477.128 852.3 475.016 847 475ZM847 481C848.187 481 849.347 481.352 850.333 482.011C851.32 482.67 852.089 483.608 852.543 484.704C852.997 485.8 853.116 487.007 852.885 488.171C852.653 489.334 852.082 490.404 851.243 491.243C850.403 492.082 849.334 492.653 848.171 492.885C847.007 493.116 845.8 492.997 844.704 492.543C843.608 492.089 842.67 491.32 842.011 490.333C841.352 489.347 841 488.187 841 487C841.005 485.41 841.639 483.887 842.763 482.763C843.887 481.639 845.41 481.005 847 481ZM847 509.885C844.63 509.874 842.298 509.285 840.207 508.169C838.116 507.053 836.328 505.444 835 503.481C835.096 499.481 843 497.279 847 497.279C851 497.279 858.904 499.481 859 503.481C857.67 505.442 855.882 507.05 853.792 508.166C851.701 509.282 849.37 509.872 847 509.885Z" fill="white"/>
<path d="M440 487C440 509.09 422.09 527 400 527C377.91 527 360 509.09 360 487C360 464.91 377.91 447 400 447C422.09 447 440 464.91 440 487Z" fill="white"/>
<path d="M379.538 496.25C378.179 496.25 376.929 496.013 375.788 495.537C374.654 495.062 373.667 494.392 372.825 493.525C371.992 492.65 371.346 491.621 370.888 490.437C370.429 489.254 370.2 487.958 370.2 486.55C370.2 485.142 370.425 483.85 370.875 482.675C371.333 481.5 371.979 480.487 372.813 479.637C373.654 478.787 374.65 478.129 375.8 477.662C376.958 477.187 378.233 476.95 379.625 476.95C380.975 476.95 382.142 477.175 383.125 477.625C384.108 478.075 384.904 478.721 385.513 479.562C386.121 480.396 386.538 481.387 386.763 482.537H387.35L386.85 484.575C386.467 482.758 385.638 481.342 384.363 480.325C383.096 479.3 381.533 478.787 379.675 478.787C378.183 478.787 376.875 479.117 375.75 479.775C374.633 480.425 373.758 481.333 373.125 482.5C372.5 483.667 372.188 485.017 372.188 486.55C372.188 487.708 372.371 488.767 372.738 489.725C373.104 490.683 373.617 491.512 374.275 492.212C374.933 492.912 375.717 493.454 376.625 493.837C377.533 494.221 378.533 494.412 379.625 494.412C380.9 494.412 382.05 494.158 383.075 493.65C384.1 493.133 384.95 492.412 385.625 491.487C386.308 490.562 386.767 489.479 387 488.237L388.425 488.637C388.158 490.162 387.613 491.496 386.788 492.637C385.971 493.779 384.942 494.667 383.7 495.3C382.467 495.933 381.079 496.25 379.538 496.25ZM387.625 496L386.95 491.637V486.975H388.825V496H387.625ZM381.363 488.625V486.9H391.45V488.625H381.363ZM386.85 484.575V477.2H388.713V484.575H386.85ZM399.25 478.912L399.263 477.2H401.763C403.621 477.2 405.079 477.6 406.138 478.4C407.204 479.2 407.738 480.4 407.738 482C407.738 483.567 407.209 484.717 406.15 485.45C405.1 486.183 403.563 486.55 401.538 486.55H396.438V485.65H401.588C402.554 485.65 403.342 485.5 403.95 485.2C404.559 484.9 405.004 484.492 405.288 483.975C405.579 483.45 405.725 482.858 405.725 482.2C405.725 481.083 405.334 480.258 404.55 479.725C403.767 479.183 402.717 478.912 401.4 478.912H399.25ZM399.15 494.287H401.713C403.154 494.287 404.3 493.992 405.15 493.4C406 492.8 406.425 491.921 406.425 490.762C406.425 490.204 406.317 489.712 406.1 489.287C405.884 488.854 405.567 488.492 405.15 488.2C404.734 487.9 404.221 487.679 403.613 487.537C403.013 487.387 402.329 487.312 401.563 487.312H396.438V486.137H401.563C402.596 486.137 403.534 486.221 404.375 486.387C405.217 486.546 405.938 486.808 406.538 487.175C407.146 487.542 407.613 488.033 407.938 488.65C408.271 489.258 408.438 490.012 408.438 490.912C408.438 492.537 407.904 493.792 406.838 494.675C405.779 495.558 404.317 496 402.45 496H399.15V494.287ZM392.075 478.912V477.2H400V478.912H396.975V494.287H400V496H392.075V494.287H395.1V478.912H392.075ZM402.963 486.075H404.163V486.55H402.963V486.075ZM420.658 496.263C419.233 496.263 417.929 496.029 416.746 495.562C415.563 495.087 414.542 494.421 413.683 493.562C412.825 492.696 412.163 491.671 411.696 490.487C411.229 489.296 410.996 487.983 410.996 486.55C410.996 485.133 411.229 483.837 411.696 482.662C412.163 481.487 412.825 480.475 413.683 479.625C414.542 478.767 415.558 478.104 416.733 477.637C417.917 477.171 419.225 476.937 420.658 476.937C422.092 476.937 423.396 477.171 424.571 477.637C425.754 478.104 426.775 478.767 427.633 479.625C428.492 480.475 429.154 481.487 429.621 482.662C430.096 483.837 430.333 485.133 430.333 486.55C430.333 487.983 430.1 489.296 429.633 490.487C429.167 491.671 428.5 492.696 427.633 493.562C426.775 494.421 425.754 495.087 424.571 495.562C423.396 496.029 422.092 496.263 420.658 496.263ZM420.658 494.438C422.183 494.438 423.521 494.104 424.671 493.437C425.829 492.762 426.729 491.833 427.371 490.65C428.021 489.467 428.346 488.1 428.346 486.55C428.346 485.017 428.021 483.667 427.371 482.5C426.729 481.325 425.829 480.408 424.671 479.75C423.521 479.092 422.183 478.762 420.658 478.762C419.142 478.762 417.804 479.092 416.646 479.75C415.496 480.408 414.596 481.325 413.946 482.5C413.296 483.667 412.971 485.017 412.971 486.55C412.971 488.1 413.296 489.467 413.946 490.65C414.596 491.833 415.496 492.762 416.646 493.437C417.796 494.104 419.133 494.438 420.658 494.438Z" fill="#117864"/>
</svg>
